{
	"asset":{
		"generator":"Khronos glTF Blender I/O v4.0.44",
		"version":"2.0"
	},
	"scene":0,
	"scenes":[
		{
			"name":"Scene",
			"nodes":[
				0,
				1,
				2,
				3,
				4,
				5,
				6,
				7,
				8,
				9,
				10,
				11,
				12
			]
		}
	],
	"nodes":[
		{
			"mesh":0,
			"name":"Circle",
			"rotation":[
				0,
				0,
				-0.7071068286895752,
				0.7071068286895752
			]
		},
		{
			"mesh":1,
			"name":"Circle.001",
			"rotation":[
				0,
				0,
				-0.7071067690849304,
				0.7071068286895752
			],
			"scale":[
				0.8552464246749878,
				0.8552464246749878,
				0.8552464246749878
			],
			"translation":[
				-0.17161248624324799,
				0.0033420976251363754,
				0
			]
		},
		{
			"mesh":2,
			"name":"Circle.002",
			"rotation":[
				0,
				0,
				-0.7071068286895752,
				0.7071068286895752
			],
			"scale":[
				0.6891156435012817,
				0.6891156435012817,
				0.6891156435012817
			],
			"translation":[
				-0.3048207759857178,
				-0.003662174567580223,
				0
			]
		},
		{
			"mesh":3,
			"name":"Circle.003",
			"rotation":[
				0,
				0,
				-0.7071068286895752,
				0.7071068286895752
			],
			"scale":[
				0.5056899189949036,
				0.5056899189949036,
				0.5056899189949036
			],
			"translation":[
				-0.41266244649887085,
				-0.007399111986160278,
				0
			]
		},
		{
			"mesh":4,
			"name":"Cylinder",
			"rotation":[
				0,
				0,
				-0.7071068286895752,
				0.7071068286895752
			],
			"scale":[
				0.10804909467697144,
				1.519765019416809,
				0.10804909467697144
			],
			"translation":[
				0.8685418963432312,
				0.0020410120487213135,
				0
			]
		},
		{
			"mesh":5,
			"name":"Circle.004",
			"rotation":[
				0.7071068286895752,
				-0.7071068286895752,
				0,
				1.1520234011186403e-07
			],
			"translation":[
				1.7564705610275269,
				0,
				0
			]
		},
		{
			"mesh":6,
			"name":"Circle.005",
			"rotation":[
				0.7071068286895752,
				-0.7071067690849304,
				0,
				1.1520233300643667e-07
			],
			"scale":[
				0.8552464246749878,
				0.8552464246749878,
				0.8552464246749878
			],
			"translation":[
				1.928083062171936,
				0.003342096693813801,
				0
			]
		},
		{
			"mesh":7,
			"name":"Circle.006",
			"rotation":[
				0.7071068286895752,
				-0.7071068286895752,
				0,
				1.1520234011186403e-07
			],
			"scale":[
				0.6891156435012817,
				0.6891156435012817,
				0.6891156435012817
			],
			"translation":[
				2.061291456222534,
				-0.003662174567580223,
				0
			]
		},
		{
			"mesh":8,
			"name":"Circle.007",
			"rotation":[
				0.7071068286895752,
				-0.7071068286895752,
				0,
				1.1520233300643667e-07
			],
			"scale":[
				0.5056899189949036,
				0.5056899189949036,
				0.5056899189949036
			],
			"translation":[
				2.169133186340332,
				-0.007399111054837704,
				0
			]
		},
		{
			"mesh":9,
			"name":"Text",
			"rotation":[
				0.5,
				-0.4999999701976776,
				0.5,
				0.4999999701976776
			],
			"scale":[
				0.413293719291687,
				0.413293719291687,
				0.413293719291687
			],
			"translation":[
				-0.41495469212532043,
				0.11097203940153122,
				-0.20075270533561707
			]
		},
		{
			"mesh":10,
			"name":"Text.001",
			"rotation":[
				0.5,
				-0.5,
				0.5,
				0.5
			],
			"scale":[
				0.317037969827652,
				0.317037969827652,
				0.317037969827652
			],
			"translation":[
				-0.41495469212532043,
				-0.3780689835548401,
				-0.1407516598701477
			]
		},
		{
			"mesh":11,
			"name":"Text.002",
			"rotation":[
				-0.4999999701976776,
				-0.5,
				-0.5000000596046448,
				0.5000001192092896
			],
			"scale":[
				-0.413293719291687,
				-0.413293719291687,
				-0.413293719291687
			],
			"translation":[
				2.170738697052002,
				0.11097204685211182,
				0.20453518629074097
			]
		},
		{
			"mesh":12,
			"name":"Text.003",
			"rotation":[
				-0.4999999403953552,
				-0.5,
				-0.5,
				0.5000000596046448
			],
			"scale":[
				-0.317037969827652,
				-0.317037969827652,
				-0.317037969827652
			],
			"translation":[
				2.170738697052002,
				-0.3780689835548401,
				0.1445341408252716
			]
		}
	],
	"materials":[
		{
			"doubleSided":true,
			"name":"Material.005",
			"pbrMetallicRoughness":{
				"baseColorFactor":[
					0,
					0,
					0,
					1
				],
				"metallicFactor":0,
				"roughnessFactor":0.5
			}
		},
		{
			"doubleSided":true,
			"name":"Material.004",
			"pbrMetallicRoughness":{
				"baseColorFactor":[
					0,
					0,
					0,
					1
				],
				"metallicFactor":0,
				"roughnessFactor":0.5
			}
		},
		{
			"doubleSided":true,
			"name":"Material.003",
			"pbrMetallicRoughness":{
				"baseColorFactor":[
					0,
					0,
					0,
					1
				],
				"metallicFactor":0,
				"roughnessFactor":0.5
			}
		},
		{
			"doubleSided":true,
			"name":"Material.002",
			"pbrMetallicRoughness":{
				"baseColorFactor":[
					0,
					0,
					0,
					1
				],
				"metallicFactor":0,
				"roughnessFactor":0.5
			}
		},
		{
			"doubleSided":true,
			"name":"Material.001",
			"pbrMetallicRoughness":{
				"roughnessFactor":0.30000001192092896
			}
		},
		{
			"doubleSided":true,
			"name":"Material.009",
			"pbrMetallicRoughness":{
				"baseColorFactor":[
					0,
					0,
					0,
					1
				],
				"metallicFactor":0,
				"roughnessFactor":0.5
			}
		},
		{
			"doubleSided":true,
			"name":"Material.008",
			"pbrMetallicRoughness":{
				"baseColorFactor":[
					0,
					0,
					0,
					1
				],
				"metallicFactor":0,
				"roughnessFactor":0.5
			}
		},
		{
			"doubleSided":true,
			"name":"Material.007",
			"pbrMetallicRoughness":{
				"baseColorFactor":[
					0,
					0,
					0,
					1
				],
				"metallicFactor":0,
				"roughnessFactor":0.5
			}
		},
		{
			"doubleSided":true,
			"name":"Material.006",
			"pbrMetallicRoughness":{
				"baseColorFactor":[
					0,
					0,
					0,
					1
				],
				"metallicFactor":0,
				"roughnessFactor":0.5
			}
		},
		{
			"doubleSided":true,
			"name":"Material.010",
			"pbrMetallicRoughness":{
				"roughnessFactor":0.30000001192092896
			}
		},
		{
			"doubleSided":true,
			"name":"Material.011",
			"pbrMetallicRoughness":{
				"roughnessFactor":0.30000001192092896
			}
		}
	],
	"meshes":[
		{
			"name":"Circle",
			"primitives":[
				{
					"attributes":{
						"POSITION":0,
						"NORMAL":1,
						"TEXCOORD_0":2
					},
					"indices":3,
					"material":0
				}
			]
		},
		{
			"name":"Circle.001",
			"primitives":[
				{
					"attributes":{
						"POSITION":4,
						"NORMAL":5,
						"TEXCOORD_0":6
					},
					"indices":3,
					"material":1
				}
			]
		},
		{
			"name":"Circle.002",
			"primitives":[
				{
					"attributes":{
						"POSITION":7,
						"NORMAL":8,
						"TEXCOORD_0":9
					},
					"indices":3,
					"material":2
				}
			]
		},
		{
			"name":"Circle.003",
			"primitives":[
				{
					"attributes":{
						"POSITION":10,
						"NORMAL":11,
						"TEXCOORD_0":12
					},
					"indices":3,
					"material":3
				}
			]
		},
		{
			"name":"Cylinder.001",
			"primitives":[
				{
					"attributes":{
						"POSITION":13,
						"NORMAL":14,
						"TEXCOORD_0":15
					},
					"indices":16,
					"material":4
				}
			]
		},
		{
			"name":"Circle.005",
			"primitives":[
				{
					"attributes":{
						"POSITION":17,
						"NORMAL":18,
						"TEXCOORD_0":19
					},
					"indices":3,
					"material":5
				}
			]
		},
		{
			"name":"Circle.006",
			"primitives":[
				{
					"attributes":{
						"POSITION":20,
						"NORMAL":21,
						"TEXCOORD_0":22
					},
					"indices":3,
					"material":6
				}
			]
		},
		{
			"name":"Circle.007",
			"primitives":[
				{
					"attributes":{
						"POSITION":23,
						"NORMAL":24,
						"TEXCOORD_0":25
					},
					"indices":3,
					"material":7
				}
			]
		},
		{
			"name":"Circle.008",
			"primitives":[
				{
					"attributes":{
						"POSITION":26,
						"NORMAL":27,
						"TEXCOORD_0":28
					},
					"indices":3,
					"material":8
				}
			]
		},
		{
			"name":"Text",
			"primitives":[
				{
					"attributes":{
						"POSITION":29,
						"NORMAL":30,
						"TEXCOORD_0":31
					},
					"indices":32,
					"material":9
				}
			]
		},
		{
			"name":"Text.001",
			"primitives":[
				{
					"attributes":{
						"POSITION":33,
						"NORMAL":34,
						"TEXCOORD_0":35
					},
					"indices":36,
					"material":10
				}
			]
		},
		{
			"name":"Text.002",
			"primitives":[
				{
					"attributes":{
						"POSITION":37,
						"NORMAL":38,
						"TEXCOORD_0":39
					},
					"indices":32,
					"material":9
				}
			]
		},
		{
			"name":"Text.003",
			"primitives":[
				{
					"attributes":{
						"POSITION":40,
						"NORMAL":41,
						"TEXCOORD_0":42
					},
					"indices":36,
					"material":10
				}
			]
		}
	],
	"accessors":[
		{
			"bufferView":0,
			"componentType":5126,
			"count":1392,
			"max":[
				1,
				0.2216644436120987,
				1
			],
			"min":[
				-1,
				0,
				-1
			],
			"type":"VEC3"
		},
		{
			"bufferView":1,
			"componentType":5126,
			"count":1392,
			"type":"VEC3"
		},
		{
			"bufferView":2,
			"componentType":5126,
			"count":1392,
			"type":"VEC2"
		},
		{
			"bufferView":3,
			"componentType":5123,
			"count":8340,
			"type":"SCALAR"
		},
		{
			"bufferView":4,
			"componentType":5126,
			"count":1392,
			"max":[
				1,
				0.2216644436120987,
				1
			],
			"min":[
				-1,
				0,
				-1
			],
			"type":"VEC3"
		},
		{
			"bufferView":5,
			"componentType":5126,
			"count":1392,
			"type":"VEC3"
		},
		{
			"bufferView":6,
			"componentType":5126,
			"count":1392,
			"type":"VEC2"
		},
		{
			"bufferView":7,
			"componentType":5126,
			"count":1392,
			"max":[
				1,
				0.2216644436120987,
				1
			],
			"min":[
				-1,
				0,
				-1
			],
			"type":"VEC3"
		},
		{
			"bufferView":8,
			"componentType":5126,
			"count":1392,
			"type":"VEC3"
		},
		{
			"bufferView":9,
			"componentType":5126,
			"count":1392,
			"type":"VEC2"
		},
		{
			"bufferView":10,
			"componentType":5126,
			"count":1392,
			"max":[
				1,
				0.2216644436120987,
				1
			],
			"min":[
				-1,
				0,
				-1
			],
			"type":"VEC3"
		},
		{
			"bufferView":11,
			"componentType":5126,
			"count":1392,
			"type":"VEC3"
		},
		{
			"bufferView":12,
			"componentType":5126,
			"count":1392,
			"type":"VEC2"
		},
		{
			"bufferView":13,
			"componentType":5126,
			"count":49844,
			"max":[
				1,
				1,
				1
			],
			"min":[
				-1,
				-1,
				-1
			],
			"type":"VEC3"
		},
		{
			"bufferView":14,
			"componentType":5126,
			"count":49844,
			"type":"VEC3"
		},
		{
			"bufferView":15,
			"componentType":5126,
			"count":49844,
			"type":"VEC2"
		},
		{
			"bufferView":16,
			"componentType":5123,
			"count":96588,
			"type":"SCALAR"
		},
		{
			"bufferView":17,
			"componentType":5126,
			"count":1392,
			"max":[
				1,
				0.2216644436120987,
				1
			],
			"min":[
				-1,
				0,
				-1
			],
			"type":"VEC3"
		},
		{
			"bufferView":18,
			"componentType":5126,
			"count":1392,
			"type":"VEC3"
		},
		{
			"bufferView":19,
			"componentType":5126,
			"count":1392,
			"type":"VEC2"
		},
		{
			"bufferView":20,
			"componentType":5126,
			"count":1392,
			"max":[
				1,
				0.2216644436120987,
				1
			],
			"min":[
				-1,
				0,
				-1
			],
			"type":"VEC3"
		},
		{
			"bufferView":21,
			"componentType":5126,
			"count":1392,
			"type":"VEC3"
		},
		{
			"bufferView":22,
			"componentType":5126,
			"count":1392,
			"type":"VEC2"
		},
		{
			"bufferView":23,
			"componentType":5126,
			"count":1392,
			"max":[
				1,
				0.2216644436120987,
				1
			],
			"min":[
				-1,
				0,
				-1
			],
			"type":"VEC3"
		},
		{
			"bufferView":24,
			"componentType":5126,
			"count":1392,
			"type":"VEC3"
		},
		{
			"bufferView":25,
			"componentType":5126,
			"count":1392,
			"type":"VEC2"
		},
		{
			"bufferView":26,
			"componentType":5126,
			"count":1392,
			"max":[
				1,
				0.2216644436120987,
				1
			],
			"min":[
				-1,
				0,
				-1
			],
			"type":"VEC3"
		},
		{
			"bufferView":27,
			"componentType":5126,
			"count":1392,
			"type":"VEC3"
		},
		{
			"bufferView":28,
			"componentType":5126,
			"count":1392,
			"type":"VEC2"
		},
		{
			"bufferView":29,
			"componentType":5126,
			"count":243,
			"max":[
				0.9700000286102295,
				0,
				0.009000000543892384
			],
			"min":[
				0.06400000303983688,
				0,
				-0.6910000443458557
			],
			"type":"VEC3"
		},
		{
			"bufferView":30,
			"componentType":5126,
			"count":243,
			"type":"VEC3"
		},
		{
			"bufferView":31,
			"componentType":5126,
			"count":243,
			"type":"VEC2"
		},
		{
			"bufferView":32,
			"componentType":5123,
			"count":723,
			"type":"SCALAR"
		},
		{
			"bufferView":33,
			"componentType":5126,
			"count":112,
			"max":[
				1.0329999923706055,
				0,
				0
			],
			"min":[
				0.07400000095367432,
				0,
				-0.6820000410079956
			],
			"type":"VEC3"
		},
		{
			"bufferView":34,
			"componentType":5126,
			"count":112,
			"type":"VEC3"
		},
		{
			"bufferView":35,
			"componentType":5126,
			"count":112,
			"type":"VEC2"
		},
		{
			"bufferView":36,
			"componentType":5123,
			"count":336,
			"type":"SCALAR"
		},
		{
			"bufferView":37,
			"componentType":5126,
			"count":243,
			"max":[
				0.9700000286102295,
				0,
				0.009000000543892384
			],
			"min":[
				0.06400000303983688,
				0,
				-0.6910000443458557
			],
			"type":"VEC3"
		},
		{
			"bufferView":38,
			"componentType":5126,
			"count":243,
			"type":"VEC3"
		},
		{
			"bufferView":39,
			"componentType":5126,
			"count":243,
			"type":"VEC2"
		},
		{
			"bufferView":40,
			"componentType":5126,
			"count":112,
			"max":[
				1.0329999923706055,
				0,
				0
			],
			"min":[
				0.07400000095367432,
				0,
				-0.6820000410079956
			],
			"type":"VEC3"
		},
		{
			"bufferView":41,
			"componentType":5126,
			"count":112,
			"type":"VEC3"
		},
		{
			"bufferView":42,
			"componentType":5126,
			"count":112,
			"type":"VEC2"
		}
	],
	"bufferViews":[
		{
			"buffer":0,
			"byteLength":16704,
			"byteOffset":0,
			"target":34962
		},
		{
			"buffer":0,
			"byteLength":16704,
			"byteOffset":16704,
			"target":34962
		},
		{
			"buffer":0,
			"byteLength":11136,
			"byteOffset":33408,
			"target":34962
		},
		{
			"buffer":0,
			"byteLength":16680,
			"byteOffset":44544,
			"target":34963
		},
		{
			"buffer":0,
			"byteLength":16704,
			"byteOffset":61224,
			"target":34962
		},
		{
			"buffer":0,
			"byteLength":16704,
			"byteOffset":77928,
			"target":34962
		},
		{
			"buffer":0,
			"byteLength":11136,
			"byteOffset":94632,
			"target":34962
		},
		{
			"buffer":0,
			"byteLength":16704,
			"byteOffset":105768,
			"target":34962
		},
		{
			"buffer":0,
			"byteLength":16704,
			"byteOffset":122472,
			"target":34962
		},
		{
			"buffer":0,
			"byteLength":11136,
			"byteOffset":139176,
			"target":34962
		},
		{
			"buffer":0,
			"byteLength":16704,
			"byteOffset":150312,
			"target":34962
		},
		{
			"buffer":0,
			"byteLength":16704,
			"byteOffset":167016,
			"target":34962
		},
		{
			"buffer":0,
			"byteLength":11136,
			"byteOffset":183720,
			"target":34962
		},
		{
			"buffer":0,
			"byteLength":598128,
			"byteOffset":194856,
			"target":34962
		},
		{
			"buffer":0,
			"byteLength":598128,
			"byteOffset":792984,
			"target":34962
		},
		{
			"buffer":0,
			"byteLength":398752,
			"byteOffset":1391112,
			"target":34962
		},
		{
			"buffer":0,
			"byteLength":193176,
			"byteOffset":1789864,
			"target":34963
		},
		{
			"buffer":0,
			"byteLength":16704,
			"byteOffset":1983040,
			"target":34962
		},
		{
			"buffer":0,
			"byteLength":16704,
			"byteOffset":1999744,
			"target":34962
		},
		{
			"buffer":0,
			"byteLength":11136,
			"byteOffset":2016448,
			"target":34962
		},
		{
			"buffer":0,
			"byteLength":16704,
			"byteOffset":2027584,
			"target":34962
		},
		{
			"buffer":0,
			"byteLength":16704,
			"byteOffset":2044288,
			"target":34962
		},
		{
			"buffer":0,
			"byteLength":11136,
			"byteOffset":2060992,
			"target":34962
		},
		{
			"buffer":0,
			"byteLength":16704,
			"byteOffset":2072128,
			"target":34962
		},
		{
			"buffer":0,
			"byteLength":16704,
			"byteOffset":2088832,
			"target":34962
		},
		{
			"buffer":0,
			"byteLength":11136,
			"byteOffset":2105536,
			"target":34962
		},
		{
			"buffer":0,
			"byteLength":16704,
			"byteOffset":2116672,
			"target":34962
		},
		{
			"buffer":0,
			"byteLength":16704,
			"byteOffset":2133376,
			"target":34962
		},
		{
			"buffer":0,
			"byteLength":11136,
			"byteOffset":2150080,
			"target":34962
		},
		{
			"buffer":0,
			"byteLength":2916,
			"byteOffset":2161216,
			"target":34962
		},
		{
			"buffer":0,
			"byteLength":2916,
			"byteOffset":2164132,
			"target":34962
		},
		{
			"buffer":0,
			"byteLength":1944,
			"byteOffset":2167048,
			"target":34962
		},
		{
			"buffer":0,
			"byteLength":1446,
			"byteOffset":2168992,
			"target":34963
		},
		{
			"buffer":0,
			"byteLength":1344,
			"byteOffset":2170440,
			"target":34962
		},
		{
			"buffer":0,
			"byteLength":1344,
			"byteOffset":2171784,
			"target":34962
		},
		{
			"buffer":0,
			"byteLength":896,
			"byteOffset":2173128,
			"target":34962
		},
		{
			"buffer":0,
			"byteLength":672,
			"byteOffset":2174024,
			"target":34963
		},
		{
			"buffer":0,
			"byteLength":2916,
			"byteOffset":2174696,
			"target":34962
		},
		{
			"buffer":0,
			"byteLength":2916,
			"byteOffset":2177612,
			"target":34962
		},
		{
			"buffer":0,
			"byteLength":1944,
			"byteOffset":2180528,
			"target":34962
		},
		{
			"buffer":0,
			"byteLength":1344,
			"byteOffset":2182472,
			"target":34962
		},
		{
			"buffer":0,
			"byteLength":1344,
			"byteOffset":2183816,
			"target":34962
		},
		{
			"buffer":0,
			"byteLength":896,
			"byteOffset":2185160,
			"target":34962
		}
	],
	"buffers":[
		{
			"byteLength":2186056,
			"uri":"dumbell.bin"
		}
	]
}
