{
	"asset":{
		"generator":"Khronos glTF Blender I/O v4.0.44",
		"version":"2.0"
	},
	"scene":0,
	"scenes":[
		{
			"name":"Scene",
			"nodes":[
				0,
				1,
				2
			]
		}
	],
	"nodes":[
		{
			"mesh":0,
			"name":"Plane",
			"rotation":[
				0,
				-0.7071068286895752,
				0.7071068286895752,
				1.1520233300643667e-07
			],
			"translation":[
				2.4356119632720947,
				0,
				-0.1904284954071045
			]
		},
		{
			"mesh":1,
			"name":"Cube",
			"rotation":[
				0,
				0,
				-1,
				0
			],
			"scale":[
				-2.5099337100982666,
				-1,
				-0.16270971298217773
			],
			"translation":[
				0.549412727355957,
				0,
				-0.10373427718877792
			]
		},
		{
			"mesh":2,
			"name":"Plane.001",
			"rotation":[
				0.7071068286895752,
				0,
				0,
				0.7071068286895752
			],
			"translation":[
				-1.3388665914535522,
				0,
				0
			]
		}
	],
	"materials":[
		{
			"doubleSided":true,
			"name":"Material.001",
			"pbrMetallicRoughness":{
				"baseColorFactor":[
					0.8470171093940735,
					0.00913354754447937,
					0.013701114803552628,
					1
				],
				"roughnessFactor":0.30000001192092896
			}
		}
	],
	"meshes":[
		{
			"name":"Plane",
			"primitives":[
				{
					"attributes":{
						"POSITION":0,
						"NORMAL":1,
						"TEXCOORD_0":2
					},
					"indices":3
				}
			]
		},
		{
			"name":"Cube.001",
			"primitives":[
				{
					"attributes":{
						"POSITION":4,
						"NORMAL":5,
						"TEXCOORD_0":6
					},
					"indices":7,
					"material":0
				}
			]
		},
		{
			"name":"Plane.007",
			"primitives":[
				{
					"attributes":{
						"POSITION":8,
						"NORMAL":9,
						"TEXCOORD_0":10
					},
					"indices":3
				}
			]
		}
	],
	"accessors":[
		{
			"bufferView":0,
			"componentType":5126,
			"count":492,
			"max":[
				4.265395164489746,
				0.19335971772670746,
				0.8479068279266357
			],
			"min":[
				-0.4324225187301636,
				-0.0007761050947010517,
				-0.8464765548706055
			],
			"type":"VEC3"
		},
		{
			"bufferView":1,
			"componentType":5126,
			"count":492,
			"type":"VEC3"
		},
		{
			"bufferView":2,
			"componentType":5126,
			"count":492,
			"type":"VEC2"
		},
		{
			"bufferView":3,
			"componentType":5123,
			"count":1128,
			"type":"SCALAR"
		},
		{
			"bufferView":4,
			"componentType":5126,
			"count":48,
			"max":[
				1,
				1,
				1
			],
			"min":[
				-1,
				-1,
				-1
			],
			"type":"VEC3"
		},
		{
			"bufferView":5,
			"componentType":5126,
			"count":48,
			"type":"VEC3"
		},
		{
			"bufferView":6,
			"componentType":5126,
			"count":48,
			"type":"VEC2"
		},
		{
			"bufferView":7,
			"componentType":5123,
			"count":84,
			"type":"SCALAR"
		},
		{
			"bufferView":8,
			"componentType":5126,
			"count":492,
			"max":[
				4.265395164489746,
				0.19335971772670746,
				0.8479068279266357
			],
			"min":[
				-0.4324225187301636,
				-0.0007761050947010517,
				-0.8464765548706055
			],
			"type":"VEC3"
		},
		{
			"bufferView":9,
			"componentType":5126,
			"count":492,
			"type":"VEC3"
		},
		{
			"bufferView":10,
			"componentType":5126,
			"count":492,
			"type":"VEC2"
		}
	],
	"bufferViews":[
		{
			"buffer":0,
			"byteLength":5904,
			"byteOffset":0,
			"target":34962
		},
		{
			"buffer":0,
			"byteLength":5904,
			"byteOffset":5904,
			"target":34962
		},
		{
			"buffer":0,
			"byteLength":3936,
			"byteOffset":11808,
			"target":34962
		},
		{
			"buffer":0,
			"byteLength":2256,
			"byteOffset":15744,
			"target":34963
		},
		{
			"buffer":0,
			"byteLength":576,
			"byteOffset":18000,
			"target":34962
		},
		{
			"buffer":0,
			"byteLength":576,
			"byteOffset":18576,
			"target":34962
		},
		{
			"buffer":0,
			"byteLength":384,
			"byteOffset":19152,
			"target":34962
		},
		{
			"buffer":0,
			"byteLength":168,
			"byteOffset":19536,
			"target":34963
		},
		{
			"buffer":0,
			"byteLength":5904,
			"byteOffset":19704,
			"target":34962
		},
		{
			"buffer":0,
			"byteLength":5904,
			"byteOffset":25608,
			"target":34962
		},
		{
			"buffer":0,
			"byteLength":3936,
			"byteOffset":31512,
			"target":34962
		}
	],
	"buffers":[
		{
			"byteLength":35448,
			"uri":"marvel.bin"
		}
	]
}
