{
	"asset":{
		"generator":"Khronos glTF Blender I/O v4.0.44",
		"version":"2.0"
	},
	"scene":0,
	"scenes":[
		{
			"name":"Scene",
			"nodes":[
				0,
				1,
				2,
				3
			]
		}
	],
	"nodes":[
		{
			"mesh":0,
			"name":"Cylinder.002",
			"scale":[
				1,
				0.016997195780277252,
				1
			]
		},
		{
			"mesh":1,
			"name":"Cylinder.003",
			"scale":[
				1.047856092453003,
				0.01781061850488186,
				1.047856092453003
			],
			"translation":[
				0,
				-0.013326077722012997,
				0
			]
		},
		{
			"mesh":2,
			"name":"Cylinder.004",
			"scale":[
				1.5405504703521729,
				0.026185037568211555,
				1.5405504703521729
			],
			"translation":[
				0,
				-0.06744083762168884,
				0
			]
		},
		{
			"mesh":3,
			"name":"Circle",
			"scale":[
				0.48408740758895874,
				0.4464484751224518,
				0.48408740758895874
			],
			"translation":[
				0,
				-0.3921486437320709,
				0
			]
		}
	],
	"materials":[
		{
			"doubleSided":true,
			"name":"Material.002",
			"pbrMetallicRoughness":{
				"baseColorFactor":[
					0.7992384433746338,
					0,
					0.014442814514040947,
					1
				],
				"roughnessFactor":0.30000001192092896
			}
		},
		{
			"doubleSided":true,
			"name":"Material.004",
			"pbrMetallicRoughness":{
				"baseColorFactor":[
					0.7999992966651917,
					0.6806307435035706,
					0.666077196598053,
					1
				],
				"roughnessFactor":0.20000000298023224
			}
		},
		{
			"doubleSided":true,
			"name":"Material.005",
			"pbrMetallicRoughness":{
				"baseColorFactor":[
					0.0015173035208135843,
					0.0930546298623085,
					0.7990450263023376,
					1
				],
				"roughnessFactor":0.30000001192092896
			}
		},
		{
			"doubleSided":true,
			"name":"Material.007",
			"pbrMetallicRoughness":{
				"baseColorFactor":[
					0.800000011920929,
					0.800000011920929,
					0.800000011920929,
					1
				],
				"roughnessFactor":0.20000000298023224
			}
		}
	],
	"meshes":[
		{
			"name":"Cylinder.003",
			"primitives":[
				{
					"attributes":{
						"POSITION":0,
						"NORMAL":1,
						"TEXCOORD_0":2
					},
					"indices":3,
					"material":0
				}
			]
		},
		{
			"name":"Cylinder.004",
			"primitives":[
				{
					"attributes":{
						"POSITION":4,
						"NORMAL":5,
						"TEXCOORD_0":6
					},
					"indices":7,
					"material":1
				}
			]
		},
		{
			"name":"Cylinder.005",
			"primitives":[
				{
					"attributes":{
						"POSITION":8,
						"NORMAL":9,
						"TEXCOORD_0":10
					},
					"indices":11,
					"material":2
				}
			]
		},
		{
			"name":"Circle.002",
			"primitives":[
				{
					"attributes":{
						"POSITION":12,
						"NORMAL":13,
						"TEXCOORD_0":14
					},
					"indices":15,
					"material":3
				}
			]
		}
	],
	"accessors":[
		{
			"bufferView":0,
			"componentType":5126,
			"count":290,
			"max":[
				0.9624711275100708,
				3.68615460395813,
				0.9624711275100708
			],
			"min":[
				-0.9624711275100708,
				-1,
				-0.9624711275100708
			],
			"type":"VEC3"
		},
		{
			"bufferView":1,
			"componentType":5126,
			"count":290,
			"type":"VEC3"
		},
		{
			"bufferView":2,
			"componentType":5126,
			"count":290,
			"type":"VEC2"
		},
		{
			"bufferView":3,
			"componentType":5123,
			"count":852,
			"type":"SCALAR"
		},
		{
			"bufferView":4,
			"componentType":5126,
			"count":438,
			"max":[
				0.6841895580291748,
				5.0897040367126465,
				0.6841895580291748
			],
			"min":[
				-0.6841895580291748,
				3.8602781295776367,
				-0.6841895580291748
			],
			"type":"VEC3"
		},
		{
			"bufferView":5,
			"componentType":5126,
			"count":438,
			"type":"VEC3"
		},
		{
			"bufferView":6,
			"componentType":5126,
			"count":438,
			"type":"VEC2"
		},
		{
			"bufferView":7,
			"componentType":5123,
			"count":1728,
			"type":"SCALAR"
		},
		{
			"bufferView":8,
			"componentType":5126,
			"count":288,
			"max":[
				0.37804555892944336,
				5.535034656524658,
				0.37804555892944336
			],
			"min":[
				-0.37804555892944336,
				5.140346050262451,
				-0.37804555892944336
			],
			"type":"VEC3"
		},
		{
			"bufferView":9,
			"componentType":5126,
			"count":288,
			"type":"VEC3"
		},
		{
			"bufferView":10,
			"componentType":5126,
			"count":288,
			"type":"VEC2"
		},
		{
			"bufferView":11,
			"componentType":5123,
			"count":852,
			"type":"SCALAR"
		},
		{
			"bufferView":12,
			"componentType":5126,
			"count":60,
			"max":[
				1.143181324005127,
				1.0737954378128052,
				1.202012062072754
			],
			"min":[
				-1.143181562423706,
				0.8372586369514465,
				-0.9724481701850891
			],
			"type":"VEC3"
		},
		{
			"bufferView":13,
			"componentType":5126,
			"count":60,
			"type":"VEC3"
		},
		{
			"bufferView":14,
			"componentType":5126,
			"count":60,
			"type":"VEC2"
		},
		{
			"bufferView":15,
			"componentType":5123,
			"count":108,
			"type":"SCALAR"
		}
	],
	"bufferViews":[
		{
			"buffer":0,
			"byteLength":3480,
			"byteOffset":0,
			"target":34962
		},
		{
			"buffer":0,
			"byteLength":3480,
			"byteOffset":3480,
			"target":34962
		},
		{
			"buffer":0,
			"byteLength":2320,
			"byteOffset":6960,
			"target":34962
		},
		{
			"buffer":0,
			"byteLength":1704,
			"byteOffset":9280,
			"target":34963
		},
		{
			"buffer":0,
			"byteLength":5256,
			"byteOffset":10984,
			"target":34962
		},
		{
			"buffer":0,
			"byteLength":5256,
			"byteOffset":16240,
			"target":34962
		},
		{
			"buffer":0,
			"byteLength":3504,
			"byteOffset":21496,
			"target":34962
		},
		{
			"buffer":0,
			"byteLength":3456,
			"byteOffset":25000,
			"target":34963
		},
		{
			"buffer":0,
			"byteLength":3456,
			"byteOffset":28456,
			"target":34962
		},
		{
			"buffer":0,
			"byteLength":3456,
			"byteOffset":31912,
			"target":34962
		},
		{
			"buffer":0,
			"byteLength":2304,
			"byteOffset":35368,
			"target":34962
		},
		{
			"buffer":0,
			"byteLength":1704,
			"byteOffset":37672,
			"target":34963
		},
		{
			"buffer":0,
			"byteLength":720,
			"byteOffset":39376,
			"target":34962
		},
		{
			"buffer":0,
			"byteLength":720,
			"byteOffset":40096,
			"target":34962
		},
		{
			"buffer":0,
			"byteLength":480,
			"byteOffset":40816,
			"target":34962
		},
		{
			"buffer":0,
			"byteLength":216,
			"byteOffset":41296,
			"target":34963
		}
	],
	"buffers":[
		{
			"byteLength":41512,
			"uri":"shield.bin"
		}
	]
}
