{
	"asset":{
		"generator":"Khronos glTF Blender I/O v4.0.44",
		"version":"2.0"
	},
	"scene":0,
	"scenes":[
		{
			"name":"Scene",
			"nodes":[
				0
			]
		}
	],
	"nodes":[
		{
			"mesh":0,
			"name":"Plane",
			"rotation":[
				0.7071068286895752,
				0,
				0,
				0.7071068286895752
			]
		}
	],
	"materials":[
		{
			"doubleSided":true,
			"name":"Material.001",
			"pbrMetallicRoughness":{
				"baseColorFactor":[
					0.7999992966651917,
					0,
					0.0013892297865822911,
					1
				],
				"roughnessFactor":0.30000001192092896
			}
		}
	],
	"meshes":[
		{
			"name":"Plane",
			"primitives":[
				{
					"attributes":{
						"POSITION":0,
						"NORMAL":1,
						"TEXCOORD_0":2
					},
					"indices":3,
					"material":0
				}
			]
		}
	],
	"accessors":[
		{
			"bufferView":0,
			"componentType":5126,
			"count":1426,
			"max":[
				0.7819963097572327,
				0.15672366321086884,
				1.130849003791809
			],
			"min":[
				-0.7917906641960144,
				0,
				-1.1473888158798218
			],
			"type":"VEC3"
		},
		{
			"bufferView":1,
			"componentType":5126,
			"count":1426,
			"type":"VEC3"
		},
		{
			"bufferView":2,
			"componentType":5126,
			"count":1426,
			"type":"VEC2"
		},
		{
			"bufferView":3,
			"componentType":5123,
			"count":3828,
			"type":"SCALAR"
		}
	],
	"bufferViews":[
		{
			"buffer":0,
			"byteLength":17112,
			"byteOffset":0,
			"target":34962
		},
		{
			"buffer":0,
			"byteLength":17112,
			"byteOffset":17112,
			"target":34962
		},
		{
			"buffer":0,
			"byteLength":11408,
			"byteOffset":34224,
			"target":34962
		},
		{
			"buffer":0,
			"byteLength":7656,
			"byteOffset":45632,
			"target":34963
		}
	],
	"buffers":[
		{
			"byteLength":53288,
			"uri":"spiderman.bin"
		}
	]
}
